<svg width="60" height="60" viewBox="0 0 60 60" fill="none" xmlns="http://www.w3.org/2000/svg">
<path d="M15.4167 50.8333C14.8642 50.8333 14.3343 50.6138 13.9436 50.2231C13.5529 49.8324 13.3334 49.3025 13.3334 48.75V32.0833C13.3334 31.5308 13.5529 31.0009 13.9436 30.6102C14.3343 30.2195 14.8642 30 15.4167 30C15.9692 30 16.4991 30.2195 16.8898 30.6102C17.2805 31.0009 17.5 31.5308 17.5 32.0833V48.75C17.5 49.3025 17.2805 49.8324 16.8898 50.2231C16.4991 50.6138 15.9692 50.8333 15.4167 50.8333ZM25.8334 50.8333C25.2808 50.8333 24.7509 50.6138 24.3602 50.2231C23.9695 49.8324 23.75 49.3025 23.75 48.75V11.25C23.75 10.6974 23.9695 10.1675 24.3602 9.77682C24.7509 9.38612 25.2808 9.16663 25.8334 9.16663C26.3859 9.16663 26.9158 9.38612 27.3065 9.77682C27.6972 10.1675 27.9167 10.6974 27.9167 11.25V48.75C27.9167 49.3025 27.6972 49.8324 27.3065 50.2231C26.9158 50.6138 26.3859 50.8333 25.8334 50.8333ZM36.25 50.8333C35.6975 50.8333 35.1676 50.6138 34.7769 50.2231C34.3862 49.8324 34.1667 49.3025 34.1667 48.75V23.75C34.1667 23.1974 34.3862 22.6675 34.7769 22.2768C35.1676 21.8861 35.6975 21.6666 36.25 21.6666C36.8026 21.6666 37.3325 21.8861 37.7232 22.2768C38.1139 22.6675 38.3334 23.1974 38.3334 23.75V48.75C38.3334 49.3025 38.1139 49.8324 37.7232 50.2231C37.3325 50.6138 36.8026 50.8333 36.25 50.8333ZM46.6667 50.8333C46.1142 50.8333 45.5843 50.6138 45.1936 50.2231C44.8029 49.8324 44.5834 49.3025 44.5834 48.75V40.4166C44.5834 39.8641 44.8029 39.3342 45.1936 38.9435C45.5843 38.5528 46.1142 38.3333 46.6667 38.3333C47.2192 38.3333 47.7491 38.5528 48.1399 38.9435C48.5306 39.3342 48.75 39.8641 48.75 40.4166V48.75C48.75 49.3025 48.5306 49.8324 48.1399 50.2231C47.7491 50.6138 47.2192 50.8333 46.6667 50.8333Z" fill="#BF83FF"/>
</svg>
