<svg width="25" height="26" viewBox="0 0 25 26" fill="none" xmlns="http://www.w3.org/2000/svg">
<path d="M9.31198 3.66667C9.31198 2.95942 9.60389 2.28115 10.1235 1.78105C10.6431 1.28095 11.3478 1 12.0826 1C12.8174 1 13.5221 1.28095 14.0417 1.78105C14.5613 2.28115 14.8532 2.95942 14.8532 3.66667C16.4441 4.3907 17.8003 5.51777 18.7765 6.92707C19.7526 8.33637 20.312 9.97477 20.3945 11.6667V15.6667C20.4987 16.4956 20.8037 17.2894 21.285 17.9842C21.7662 18.6789 22.4102 19.2552 23.1651 19.6667H1.00012C1.75503 19.2552 2.39902 18.6789 2.88025 17.9842C3.36147 17.2894 3.66649 16.4956 3.77074 15.6667V11.6667C3.85325 9.97477 4.41256 8.33637 5.38871 6.92707C6.36487 5.51777 7.72108 4.3907 9.31198 3.66667" stroke="#6E6E6E" stroke-width="2" stroke-linecap="round" stroke-linejoin="round"/>
<path d="M7.92676 19.6666V21C7.92676 22.0608 8.36461 23.0782 9.14401 23.8284C9.9234 24.5785 10.9805 24.9999 12.0827 24.9999C13.1849 24.9999 14.242 24.5785 15.0214 23.8284C15.8008 23.0782 16.2387 22.0608 16.2387 21V19.6666" stroke="#6E6E6E" stroke-width="2" stroke-linecap="round" stroke-linejoin="round"/>
</svg>
