<svg width="49" height="49" viewBox="0 0 49 49" fill="none" xmlns="http://www.w3.org/2000/svg">
<path d="M17.3262 37.5834L13.3384 39.4691C11.5843 40.249 9.59477 40.3118 7.79495 39.6442C5.99512 38.9766 4.52782 37.6315 3.70663 35.8963C2.88544 34.1612 2.77551 32.1737 3.40032 30.3585C4.02514 28.5434 5.33513 27.0447 7.05035 26.1826L11.0381 24.2933L17.3262 37.5834ZM17.3262 37.5834C25.1203 33.8905 33.8342 32.5906 42.3667 33.848L45.0096 34.2374L31.1895 5L29.8122 7.28953C25.3744 14.6889 18.8423 20.6062 11.0417 24.2933L17.3262 37.5834ZM17.3262 37.5834C18.1492 39.3236 19.3173 40.8783 20.7596 42.1533C22.2019 43.4282 23.8883 44.3967 25.7163 45" stroke="#BF83FF" stroke-width="2.5" stroke-linecap="round" stroke-linejoin="round"/>
</svg>
