<svg width="24" height="24" viewBox="0 0 24 24" fill="none" xmlns="http://www.w3.org/2000/svg">
<path d="M11.9636 0.530762C5.68764 0.530762 0.599976 5.5285 0.599976 11.6936C0.599976 13.5833 1.07887 15.3653 1.92384 16.9265L0.647865 21.3334C0.588567 21.5383 0.586056 21.7551 0.640591 21.9612C0.695127 22.1674 0.804729 22.3555 0.958069 22.5062C1.11141 22.6568 1.30292 22.7645 1.51281 22.818C1.72269 22.8716 1.94333 22.8691 2.15192 22.8109L6.63894 21.5575C8.27848 22.413 10.1071 22.859 11.9636 22.8563C18.2396 22.8563 23.3272 17.8586 23.3272 11.6936C23.3272 5.5285 18.2396 0.530762 11.9636 0.530762ZM11.9636 22.059C10.2404 22.0597 8.54323 21.6457 7.02043 20.8534L6.73228 20.7027L1.93033 22.0446C1.89241 22.0558 1.85303 22.0614 1.81345 22.0614C1.75112 22.0601 1.68991 22.0449 1.63451 22.0168C1.57911 21.9887 1.53099 21.9485 1.49385 21.8994C1.4567 21.8502 1.43152 21.7933 1.42023 21.733C1.40894 21.6728 1.41184 21.6108 1.42871 21.5519L2.79397 16.8356L2.64056 16.5526C1.83302 15.0561 1.41109 13.3881 1.41166 11.6944C1.41166 5.979 6.14543 1.3289 11.9636 1.3289C17.7818 1.3289 22.5156 5.979 22.5156 11.6944C22.5156 17.4097 17.7818 22.059 11.9636 22.059ZM16.4279 9.30232H7.49933C7.39169 9.30232 7.28846 9.26032 7.21235 9.18556C7.13624 9.11079 7.09348 9.00939 7.09348 8.90365C7.09348 8.79792 7.13624 8.69651 7.21235 8.62175C7.28846 8.54698 7.39169 8.50498 7.49933 8.50498H16.4279C16.5355 8.50498 16.6388 8.54698 16.7149 8.62175C16.791 8.69651 16.8337 8.79792 16.8337 8.90365C16.8337 9.00939 16.791 9.11079 16.7149 9.18556C16.6388 9.26032 16.5355 9.30232 16.4279 9.30232ZM13.1811 14.0864H7.49933C7.39169 14.0864 7.28846 14.0444 7.21235 13.9696C7.13624 13.8948 7.09348 13.7934 7.09348 13.6877C7.09348 13.582 7.13624 13.4806 7.21235 13.4058C7.28846 13.331 7.39169 13.289 7.49933 13.289H13.1811C13.2888 13.289 13.392 13.331 13.4681 13.4058C13.5442 13.4806 13.587 13.582 13.587 13.6877C13.587 13.7934 13.5442 13.8948 13.4681 13.9696C13.392 14.0444 13.2888 14.0864 13.1811 14.0864Z" fill="#6E6E6E" stroke="#6E6E6E" stroke-width="1.2"/>
</svg>
