<svg width="28" height="30" viewBox="0 0 28 30" fill="none" xmlns="http://www.w3.org/2000/svg">
<rect width="28" height="30" rx="4" fill="#FFD6B0"/>
<path fill-rule="evenodd" clip-rule="evenodd" d="M9.6146 5C8.92117 5 8.25613 5.29716 7.7658 5.82611C7.27547 6.35506 7 7.07247 7 7.82051V22.1795C7 22.9275 7.27547 23.6449 7.7658 24.1739C8.25613 24.7028 8.92117 25 9.6146 25H19.1222C19.8157 25 20.4807 24.7028 20.971 24.1739C21.4614 23.6449 21.7368 22.9275 21.7368 22.1795V10.8646C21.7368 10.4738 21.6189 10.0944 21.4003 9.78256L18.5499 5.71282C18.3948 5.4914 18.1942 5.31179 17.9639 5.18811C17.7336 5.06443 17.4799 5.00004 17.2226 5H9.6146ZM8.42615 7.82051C8.42615 7.11282 8.95857 6.53846 9.6146 6.53846H16.5076V11.0482C16.5076 11.4728 16.8271 11.8174 17.2207 11.8174H20.3107V22.1795C20.3107 22.8872 19.7783 23.4615 19.1222 23.4615H9.6146C8.95857 23.4615 8.42615 22.8872 8.42615 22.1795V7.82051Z" fill="#FF7A00"/>
<path d="M19.0883 16.0963C19.0883 15.8782 18.9953 15.669 18.8297 15.5148C18.6641 15.3606 18.4396 15.2739 18.2054 15.2739H11.1426C10.9085 15.2739 10.6839 15.3606 10.5183 15.5148C10.3528 15.669 10.2598 15.8782 10.2598 16.0963C10.2598 16.3144 10.3528 16.5236 10.5183 16.6778C10.6839 16.832 10.9085 16.9187 11.1426 16.9187H18.2054C18.4396 16.9187 18.6641 16.832 18.8297 16.6778C18.9953 16.5236 19.0883 16.3144 19.0883 16.0963ZM19.0883 20.4823C19.0883 20.2642 18.9953 20.055 18.8297 19.9008C18.6641 19.7465 18.4396 19.6599 18.2054 19.6599H11.1426C10.9085 19.6599 10.6839 19.7465 10.5183 19.9008C10.3528 20.055 10.2598 20.2642 10.2598 20.4823C10.2598 20.7004 10.3528 20.9095 10.5183 21.0638C10.6839 21.218 10.9085 21.3046 11.1426 21.3046H18.2054C18.4396 21.3046 18.6641 21.218 18.8297 21.0638C18.9953 20.9095 19.0883 20.7004 19.0883 20.4823Z" fill="#FF7A00"/>
</svg>
