<svg width="15" height="16" viewBox="0 0 15 16" fill="none" xmlns="http://www.w3.org/2000/svg">
<path d="M14.0835 2.09737C14.0835 1.62579 14.0835 1.39 13.9918 1.20979C13.9121 1.05147 13.7849 0.922667 13.6285 0.84179C13.4501 0.75 13.2168 0.75 12.7501 0.75H2.08346C1.61679 0.75 1.38346 0.75 1.20512 0.84179C1.04833 0.922524 0.920849 1.05134 0.840956 1.20979C0.750122 1.39 0.750122 1.62579 0.750122 2.09737V2.718C0.750122 2.92432 0.750122 3.02705 0.773455 3.12389C0.793861 3.21011 0.82761 3.29253 0.873455 3.36811C0.924288 3.45232 0.996789 3.52558 1.14012 3.67126L5.35929 7.934C5.50345 8.07968 5.57595 8.15295 5.62679 8.23716C5.6729 8.31351 5.70623 8.39491 5.72679 8.48137C5.75012 8.57737 5.75012 8.67926 5.75012 8.88053V12.8856C5.75012 13.6073 5.75012 13.9685 5.90012 14.1858C5.9652 14.2798 6.04859 14.3593 6.14517 14.4195C6.24175 14.4798 6.34949 14.5194 6.46179 14.5361C6.72095 14.5748 7.04095 14.414 7.67929 14.0906L8.34595 13.7538C8.61429 13.6191 8.74762 13.5517 8.84512 13.4506C8.93161 13.3614 8.99736 13.2538 9.03762 13.1357C9.08345 13.0026 9.08345 12.8511 9.08345 12.5487V8.88726C9.08345 8.68095 9.08345 8.57821 9.10679 8.48137C9.12719 8.39515 9.16094 8.31274 9.20679 8.23716C9.25679 8.15295 9.32929 8.08053 9.47095 7.93737L9.47429 7.934L13.6935 3.67126C13.8368 3.52558 13.9085 3.45232 13.9601 3.36811C14.0062 3.29175 14.0396 3.21035 14.0601 3.12389C14.0835 3.02874 14.0835 2.926 14.0835 2.72474V2.09737Z" stroke="#FF7A00" stroke-width="1.5" stroke-linecap="round" stroke-linejoin="round"/>
</svg>
