<svg width="60" height="60" viewBox="0 0 60 60" fill="none" xmlns="http://www.w3.org/2000/svg">
<path d="M16.8732 20.625C17.5362 20.625 18.172 20.3616 18.6408 19.8928C19.1095 19.4239 19.3729 18.788 19.3729 18.125C19.3729 17.462 19.1095 16.8261 18.6408 16.3572C18.172 15.8884 17.5362 15.625 16.8732 15.625C16.2103 15.625 15.5745 15.8884 15.1057 16.3572C14.637 16.8261 14.3736 17.462 14.3736 18.125C14.3736 18.788 14.637 19.4239 15.1057 19.8928C15.5745 20.3616 16.2103 20.625 16.8732 20.625ZM25.622 16.25C25.1248 16.25 24.6479 16.4475 24.2963 16.7992C23.9447 17.1508 23.7472 17.6277 23.7472 18.125C23.7472 18.6223 23.9447 19.0992 24.2963 19.4508C24.6479 19.8025 25.1248 20 25.622 20H39.3699C39.8671 20 40.344 19.8025 40.6956 19.4508C41.0471 19.0992 41.2447 18.6223 41.2447 18.125C41.2447 17.6277 41.0471 17.1508 40.6956 16.7992C40.344 16.4475 39.8671 16.25 39.3699 16.25H25.622ZM25.622 25.625C25.1248 25.625 24.6479 25.8225 24.2963 26.1742C23.9447 26.5258 23.7472 27.0027 23.7472 27.5C23.7472 27.9973 23.9447 28.4742 24.2963 28.8258C24.6479 29.1775 25.1248 29.375 25.622 29.375H35.2005L35.658 28.4575C36.3204 27.1325 37.3377 26.1875 38.5026 25.625H25.622ZM25.622 35H32.391L30.5162 38.75H25.622C25.1248 38.75 24.6479 38.5525 24.2963 38.2008C23.9447 37.8492 23.7472 37.3723 23.7472 36.875C23.7472 36.3777 23.9447 35.9008 24.2963 35.5492C24.6479 35.1975 25.1248 35 25.622 35ZM13.1238 46.25H26.7718L25.672 48.45C25.4246 48.9407 25.2431 49.4618 25.132 50H13.1238C10.9692 50 8.90291 49.144 7.37941 47.6202C5.8559 46.0965 5 44.0299 5 41.875V13.125C5 10.9701 5.8559 8.90349 7.37941 7.37976C8.90291 5.85602 10.9692 5 13.1238 5H41.8696C44.0241 5 46.0904 5.85602 47.614 7.37976C49.1375 8.90349 49.9934 10.9701 49.9934 13.125V34.7625L46.8438 28.4575C46.673 28.1146 46.4723 27.7875 46.2439 27.48V13.125C46.2439 11.9647 45.783 10.8519 44.9627 10.0314C44.1423 9.21094 43.0297 8.75 41.8696 8.75H13.1238C11.9637 8.75 10.851 9.21094 10.0307 10.0314C9.21032 10.8519 8.74945 11.9647 8.74945 13.125V41.875C8.74945 44.29 10.7092 46.25 13.1238 46.25ZM19.3729 27.5C19.3729 28.163 19.1095 28.7989 18.6408 29.2678C18.172 29.7366 17.5362 30 16.8732 30C16.2103 30 15.5745 29.7366 15.1057 29.2678C14.637 28.7989 14.3736 28.163 14.3736 27.5C14.3736 26.837 14.637 26.2011 15.1057 25.7322C15.5745 25.2634 16.2103 25 16.8732 25C17.5362 25 18.172 25.2634 18.6408 25.7322C19.1095 26.2011 19.3729 26.837 19.3729 27.5ZM16.8732 39.375C17.5362 39.375 18.172 39.1116 18.6408 38.6428C19.1095 38.1739 19.3729 37.538 19.3729 36.875C19.3729 36.212 19.1095 35.5761 18.6408 35.1072C18.172 34.6384 17.5362 34.375 16.8732 34.375C16.2103 34.375 15.5745 34.6384 15.1057 35.1072C14.637 35.5761 14.3736 36.212 14.3736 36.875C14.3736 37.538 14.637 38.1739 15.1057 38.6428C15.5745 39.1116 16.2103 39.375 16.8732 39.375ZM37.8976 29.575C39.2799 26.8075 43.2294 26.8075 44.6117 29.575L54.6027 49.57C54.8894 50.1423 55.0249 50.7784 54.9962 51.4179C54.9676 52.0574 54.7757 52.6789 54.439 53.2232C54.1022 53.7676 53.6317 54.2166 53.0723 54.5276C52.5129 54.8386 51.8832 55.0013 51.2432 55H31.2611C30.6213 55.0008 29.9919 54.8379 29.4329 54.5267C28.8738 54.2155 28.4037 53.7664 28.0672 53.2222C27.7307 52.6779 27.5391 52.0566 27.5105 51.4173C27.482 50.778 27.6175 50.1421 27.9041 49.57L37.8976 29.575ZM42.5045 36.24C42.5045 35.9085 42.3728 35.5905 42.1384 35.3561C41.904 35.1217 41.5861 34.99 41.2547 34.99C40.9232 34.99 40.6053 35.1217 40.3709 35.3561C40.1365 35.5905 40.0048 35.9085 40.0048 36.24V43.7425C40.0048 44.074 40.1365 44.392 40.3709 44.6264C40.6053 44.8608 40.9232 44.9925 41.2547 44.9925C41.5861 44.9925 41.904 44.8608 42.1384 44.6264C42.3728 44.392 42.5045 44.074 42.5045 43.7425V36.24ZM41.2547 49.9975C41.5861 49.9975 41.904 49.8658 42.1384 49.6314C42.3728 49.397 42.5045 49.079 42.5045 48.7475C42.5045 48.416 42.3728 48.098 42.1384 47.8636C41.904 47.6292 41.5861 47.4975 41.2547 47.4975C40.9232 47.4975 40.6053 47.6292 40.3709 47.8636C40.1365 48.098 40.0048 48.416 40.0048 48.7475C40.0048 49.079 40.1365 49.397 40.3709 49.6314C40.6053 49.8658 40.9232 49.9975 41.2547 49.9975Z" fill="#FF5636"/>
</svg>
