<svg width="24" height="24" viewBox="0 0 24 24" fill="none" xmlns="http://www.w3.org/2000/svg">
<path d="M8.73047 18.0334L7.13537 18.7876C6.43373 19.0996 5.63791 19.1247 4.91798 18.8577C4.19805 18.5906 3.61113 18.0526 3.28265 17.3585C2.95418 16.6645 2.9102 15.8695 3.16013 15.1434C3.41005 14.4174 3.93405 13.8179 4.62014 13.473L6.21524 12.7173L8.73047 18.0334ZM8.73047 18.0334C11.8481 16.5562 15.3337 16.0362 18.7467 16.5392L19.8038 16.695L14.2758 5L13.7249 5.91581C11.9498 8.87555 9.33691 11.2425 6.21668 12.7173L8.73047 18.0334ZM8.73047 18.0334C9.05968 18.7294 9.52693 19.3513 10.1038 19.8613C10.6808 20.3713 11.3553 20.7587 12.0865 21" stroke="#1A1A1A" stroke-width="1.5" stroke-linecap="round" stroke-linejoin="round"/>
</svg>
