<svg width="40" height="43" viewBox="0 0 40 43" fill="none" xmlns="http://www.w3.org/2000/svg">
<path d="M15.3531 5.94444C15.3531 4.7657 15.8396 3.63524 16.7056 2.80175C17.5716 1.96825 18.7461 1.5 19.9708 1.5C21.1955 1.5 22.37 1.96825 23.236 2.80175C24.102 3.63524 24.5885 4.7657 24.5885 5.94444C27.24 7.15117 29.5004 9.02961 31.1273 11.3784C32.7542 13.7273 33.6864 16.4579 33.8239 19.2778V25.9444C33.9977 27.326 34.506 28.649 35.3081 29.8069C36.1101 30.9649 37.1834 31.9254 38.4416 32.6111H1.5C2.75818 31.9254 3.8315 30.9649 4.63354 29.8069C5.43559 28.649 5.94395 27.326 6.1177 25.9444V19.2778C6.25522 16.4579 7.18739 13.7273 8.81432 11.3784C10.4413 9.02961 12.7016 7.15117 15.3531 5.94444" stroke="#2672FF" stroke-width="3" stroke-linecap="round" stroke-linejoin="round"/>
<path d="M13.0449 32.6111V34.8334C13.0449 36.6015 13.7747 38.2972 15.0737 39.5474C16.3727 40.7976 18.1345 41.5 19.9715 41.5C21.8085 41.5 23.5703 40.7976 24.8693 39.5474C26.1683 38.2972 26.8981 36.6015 26.8981 34.8334V32.6111" stroke="#2672FF" stroke-width="3" stroke-linecap="round" stroke-linejoin="round"/>
</svg>
