<svg width="24" height="24" viewBox="0 0 24 24" fill="none" xmlns="http://www.w3.org/2000/svg">
<path d="M12.391 4.28974C12.2951 4.19521 12.1801 4.12074 12.0533 4.07095C11.9264 4.02116 11.7903 3.9971 11.6534 4.00028C11.5165 4.00345 11.3818 4.03379 11.2575 4.0894C11.1333 4.14502 11.0221 4.22473 10.931 4.3236L4.754 11.0177C4.5904 11.195 4.49999 11.4244 4.5 11.6621V19.0325C4.5 19.2891 4.60536 19.5352 4.79289 19.7166C4.98043 19.8981 5.23478 20 5.5 20H8.5C8.76522 20 9.01957 19.8981 9.20711 19.7166C9.39464 19.5352 9.5 19.2891 9.5 19.0325V15.6463C9.5 15.3897 9.60536 15.1436 9.79289 14.9621C9.98043 14.7807 10.2348 14.6788 10.5 14.6788H13.5C13.7652 14.6788 14.0196 14.7807 14.2071 14.9621C14.3946 15.1436 14.5 15.3897 14.5 15.6463V19.0325C14.5 19.2891 14.6054 19.5352 14.7929 19.7166C14.9804 19.8981 15.2348 20 15.5 20H18.5C18.7652 20 19.0196 19.8981 19.2071 19.7166C19.3946 19.5352 19.5 19.2891 19.5 19.0325V11.6882C19.4997 11.4348 19.3966 11.1916 19.213 11.011L12.391 4.28974Z" stroke="black" stroke-width="1.2"/>
</svg>
