<svg width="541" height="531" viewBox="0 0 541 531" fill="none" xmlns="http://www.w3.org/2000/svg">
<g clip-path="url(#clip0_27_206)">
<path d="M540.149 356.677H332.992V236.799H540.149V356.677ZM334.256 355.413H538.885V238.063H334.256V355.413Z" fill="#E0E0E0"/>
<path d="M497.413 300.72H360.737V304.726H497.413V300.72Z" fill="#F0F0F0"/>
<path d="M506.83 315.66H360.737V320.033H506.83V315.66Z" fill="#F0F0F0"/>
<path d="M506.83 330.777H360.737V335.151H506.83V330.777Z" fill="#F0F0F0"/>
<path d="M408.503 279.017H360.737V289.419H408.503V279.017Z" fill="#F0F0F0"/>
<path d="M539.517 237.431H333.662V256.517H539.517V237.431Z" fill="#E0E0E0"/>
<path d="M523.679 253.661C523.413 253.408 526.068 250.21 529.594 246.519C533.121 242.828 536.218 240.035 536.471 240.275C536.723 240.515 534.082 243.726 530.555 247.429C527.029 251.133 523.932 253.914 523.679 253.661Z" fill="white"/>
<path d="M536.496 253.661C536.243 253.914 533.159 251.133 529.62 247.429C526.081 243.726 523.439 240.528 523.704 240.275C523.97 240.022 527.041 242.803 530.581 246.519C534.12 250.235 536.736 253.408 536.496 253.661Z" fill="white"/>
<path d="M285.238 0.0391846H79.383V118.666H285.238V0.0391846Z" fill="#E6E6E6"/>
<path d="M243.147 63.3403H106.471V67.3472H243.147V63.3403Z" fill="#F0F0F0"/>
<path d="M252.564 78.2808H106.471V82.6542H252.564V78.2808Z" fill="#F0F0F0"/>
<path d="M252.564 93.3982H106.471V97.7716H252.564V93.3982Z" fill="#F0F0F0"/>
<path d="M154.237 41.6374H106.471V52.0401H154.237V41.6374Z" fill="#F0F0F0"/>
<path d="M285.238 0.0391846H79.383V19.1256H285.238V0.0391846Z" fill="#E0E0E0"/>
<path d="M268.705 16.1805C268.44 15.9403 271.094 12.7297 274.62 9.03887C278.147 5.34799 281.244 2.55455 281.497 2.80735C281.749 3.06015 279.108 6.25807 275.581 9.94895C272.055 13.6398 268.958 16.408 268.705 16.1805Z" fill="white"/>
<path d="M281.497 16.1805C281.244 16.4333 278.16 13.6525 274.621 9.94894C271.081 6.24541 268.44 3.06014 268.705 2.80734C268.97 2.55454 272.042 5.33533 275.581 9.03885C279.12 12.7424 281.762 15.9403 281.497 16.1805Z" fill="white"/>
<path d="M207.275 220.405H0.155518V100.515H207.275V220.405ZM1.41952 219.141H206.011V101.779H1.41952V219.141Z" fill="#E0E0E0"/>
<path d="M164.551 164.448H27.875V168.455H164.551V164.448Z" fill="#F0F0F0"/>
<path d="M173.968 179.388H27.875V183.762H173.968V179.388Z" fill="#F0F0F0"/>
<path d="M173.968 194.506H27.875V198.879H173.968V194.506Z" fill="#F0F0F0"/>
<path d="M75.6416 142.745H27.875V153.147H75.6416V142.745Z" fill="#F0F0F0"/>
<path d="M206.643 101.147H0.787537V120.233H206.643V101.147Z" fill="#E0E0E0"/>
<path d="M446.31 247.872H203.242V465.482H446.31V247.872Z" fill="#E6E6E6"/>
<path d="M215.465 179.325H25.0563V377.154H215.465V179.325Z" fill="#F0F0F0"/>
<path d="M215.465 179.325H25.0563V200.876H215.465V179.325Z" fill="#E0E0E0"/>
<path d="M40.7805 189.879C40.7459 190.661 40.4825 191.415 40.023 192.048C39.5636 192.681 38.9284 193.166 38.1962 193.441C37.464 193.716 36.667 193.771 35.9042 193.597C35.1414 193.424 34.4464 193.03 33.9053 192.465C33.3643 191.9 33.0011 191.188 32.8607 190.419C32.7204 189.649 32.8092 188.855 33.116 188.136C33.4228 187.416 33.9342 186.803 34.5867 186.371C35.2392 185.939 36.004 185.709 36.7863 185.708C37.8681 185.735 38.8954 186.188 39.6438 186.97C40.3922 187.751 40.8009 188.797 40.7805 189.879Z" fill="white"/>
<path d="M56.9976 189.879C56.9654 190.665 56.703 191.423 56.243 192.06C55.783 192.697 55.1458 193.185 54.4107 193.463C53.6756 193.741 52.875 193.796 52.1085 193.623C51.3421 193.449 50.6436 193.054 50.1001 192.486C49.5566 191.919 49.192 191.204 49.0516 190.43C48.9113 189.657 49.0015 188.86 49.3109 188.137C49.6203 187.415 50.1354 186.799 50.7919 186.368C51.4484 185.936 52.2175 185.706 53.0034 185.708C54.0852 185.735 55.1125 186.188 55.8609 186.97C56.6093 187.751 57.018 188.797 56.9976 189.879Z" fill="white"/>
<path d="M73.2147 189.879C73.1824 190.665 72.92 191.423 72.4601 192.06C72.0001 192.697 71.3629 193.185 70.6278 193.463C69.8926 193.741 69.092 193.796 68.3256 193.623C67.5591 193.449 66.8607 193.054 66.3172 192.486C65.7736 191.919 65.409 191.204 65.2687 190.43C65.1284 189.657 65.2185 188.86 65.5279 188.137C65.8374 187.415 66.3524 186.799 67.0089 186.368C67.6655 185.936 68.4346 185.706 69.2204 185.708C70.3022 185.735 71.3296 186.188 72.078 186.97C72.8264 187.751 73.235 188.797 73.2147 189.879Z" fill="white"/>
<path d="M512.96 43.3059H269.893V285.564H512.96V43.3059Z" fill="#F0F0F0"/>
<path d="M512.96 43.3059H269.893V71.6827H512.96V43.3059Z" fill="#E0E0E0"/>
<path d="M290.597 57.2099C290.553 58.2415 290.206 59.2373 289.601 60.0737C288.995 60.91 288.157 61.5501 287.191 61.9144C286.225 62.2787 285.173 62.3511 284.166 62.1228C283.159 61.8944 282.241 61.3753 281.526 60.6299C280.812 59.8845 280.332 58.9456 280.146 57.9299C279.961 56.9141 280.078 55.8662 280.482 54.9163C280.887 53.9663 281.562 53.1562 282.423 52.5864C283.284 52.0167 284.294 51.7125 285.327 51.7115C286.754 51.7447 288.109 52.3419 289.097 53.3723C290.085 54.4028 290.625 55.7827 290.597 57.2099Z" fill="white"/>
<path d="M310.404 53.4937C311.105 54.2547 311.566 55.2051 311.731 56.2264C311.895 57.2477 311.756 58.2948 311.329 59.2373C310.903 60.1797 310.208 60.9759 309.332 61.5265C308.457 62.0771 307.438 62.3578 306.404 62.3336C305.37 62.3095 304.366 61.9816 303.516 61.3908C302.667 60.7999 302.011 59.9723 301.629 59.0109C301.247 58.0496 301.156 56.9971 301.368 55.9846C301.58 54.972 302.085 54.0442 302.82 53.3168C303.851 52.3365 305.227 51.8046 306.649 51.8378C308.071 51.871 309.421 52.4665 310.404 53.4937Z" fill="white"/>
<path d="M333.295 57.2099C333.251 58.2415 332.904 59.2373 332.299 60.0737C331.693 60.91 330.855 61.5501 329.889 61.9144C328.923 62.2787 327.871 62.3511 326.864 62.1228C325.857 61.8944 324.939 61.3753 324.224 60.6299C323.51 59.8845 323.03 58.9456 322.844 57.9299C322.659 56.9141 322.776 55.8662 323.18 54.9163C323.585 53.9663 324.26 53.1562 325.121 52.5864C325.982 52.0167 326.992 51.7125 328.024 51.7115C329.452 51.7447 330.807 52.3419 331.795 53.3723C332.783 54.4028 333.322 55.7827 333.295 57.2099Z" fill="white"/>
<path d="M460.454 529.756C460.454 529.933 372.682 530.085 264.445 530.085C156.209 530.085 68.3989 529.933 68.3989 529.756C68.3989 529.579 156.158 529.428 264.445 529.428C372.732 529.428 460.454 529.592 460.454 529.756Z" fill="#263238"/>
<path d="M374.932 375.017C355.403 361.379 350.979 336.061 351.75 313.296C351.876 309.504 351.459 305.485 353.267 302.16C355.074 298.836 359.296 296.548 362.696 298.141C365.515 299.468 366.741 302.755 368.321 305.472C370.429 309.092 373.518 312.041 377.232 313.979C379.646 315.243 382.642 316.001 385.031 314.687C388.317 312.879 388.696 308.367 388.671 304.575C388.671 297.522 388.629 290.477 388.545 283.441C388.318 279.662 388.702 275.872 389.682 272.216C390.858 268.627 393.474 265.302 397.052 264.291C400.629 263.28 405.091 265.365 405.9 269.056C406.039 270.62 406.077 272.19 406.013 273.758C406.114 275.338 406.848 277.07 408.326 277.55C409.805 278.031 411.347 276.931 412.485 275.819C416.378 272.027 419.032 267.084 421.497 262.205C423.962 257.326 426.376 252.308 429.916 248.15C433.455 243.991 438.346 240.692 443.82 240.376C449.293 240.06 454.993 243.422 456.358 248.731C457.724 254.04 454.627 259.463 451.302 263.773C446.286 270.171 440.373 275.812 433.745 280.521C432.452 281.227 431.419 282.331 430.8 283.668C429.979 286.196 432.368 288.724 434.858 289.52C437.676 290.456 440.735 290.165 443.706 290.519C446.676 290.873 449.836 292.162 450.961 294.943C452.503 298.811 449.267 302.856 446.095 305.51C439.724 310.819 432.49 314.996 424.708 317.859C421.927 318.871 419.007 319.768 416.757 321.715C414.507 323.661 413.168 327.061 414.52 329.728C415.872 332.395 419.348 333.242 422.268 332.699C425.188 332.155 427.779 330.588 430.56 329.539C435.755 327.58 442.454 327.933 445.728 332.421C446.742 333.966 447.384 335.726 447.604 337.562C447.823 339.398 447.614 341.259 446.992 343C445.727 346.465 443.78 349.642 441.266 352.341C432.988 362.232 422.231 369.748 410.096 374.12C398.05 378.291 386.889 379.429 374.919 375.043" fill="#FF7A00"/>
<path d="M450.797 243.498C450.797 243.498 450.683 243.625 450.43 243.852L449.305 244.851C448.319 245.735 446.866 247.025 445.033 248.731C439.837 253.556 435.011 258.766 430.598 264.316C427.779 267.818 424.86 271.787 421.75 276.097C418.641 280.407 415.43 285.059 412.245 290.001C408.849 295.212 405.739 300.605 402.929 306.155C401.463 309.049 400.174 312.07 398.847 315.154L394.928 324.571C389.763 336.433 385.265 348.573 381.454 360.936C378.384 371.052 376.268 381.432 375.134 391.942C374.399 399.035 374.28 406.178 374.78 413.291C374.982 415.819 375.172 417.753 375.349 419.068C375.425 419.7 375.475 420.205 375.526 420.572V421.09C375.471 420.926 375.433 420.756 375.412 420.585C375.349 420.218 375.273 419.725 375.172 419.093C374.944 417.829 374.704 415.832 374.477 413.304C373.867 406.178 373.909 399.01 374.603 391.892C375.667 381.337 377.737 370.908 380.784 360.747C384.563 348.349 389.049 336.178 394.22 324.293L398.24 314.914C399.567 311.843 400.869 308.796 402.348 305.889C405.177 300.323 408.313 294.917 411.739 289.697C414.975 284.641 418.236 280.066 421.308 275.793C424.379 271.521 427.35 267.527 430.156 264.038C434.614 258.502 439.504 253.329 444.78 248.567C446.651 246.886 448.143 245.622 449.154 244.775L450.329 243.827C450.473 243.701 450.63 243.591 450.797 243.498Z" fill="white"/>
<path d="M402.512 305.864C402.334 305.343 402.211 304.805 402.145 304.259C401.943 303.21 401.716 301.731 401.45 299.809C400.907 296.017 400.351 290.822 399.756 285.071C399.162 279.32 398.492 274.112 397.936 270.358C397.646 268.487 397.393 266.983 397.216 265.934C397.078 265.397 397.006 264.845 397.001 264.291C397.219 264.797 397.376 265.328 397.469 265.871C397.747 266.907 398.063 268.399 398.417 270.282C399.137 274.074 399.845 279.231 400.439 284.995C401.033 290.759 401.539 295.815 401.931 299.746C402.12 301.516 402.284 303.02 402.411 304.221C402.509 304.763 402.543 305.314 402.512 305.864Z" fill="white"/>
<path d="M451.151 296.788C450.536 296.922 449.909 296.999 449.28 297.016C448.016 297.13 446.221 297.281 443.996 297.534C439.547 298.015 433.429 298.899 426.718 300.163C420.006 301.427 413.976 302.856 409.641 303.955C407.48 304.511 405.735 305.017 404.585 305.358C403.971 305.577 403.335 305.729 402.689 305.813C403.273 305.52 403.882 305.279 404.509 305.093C405.697 304.676 407.416 304.094 409.565 303.475C413.875 302.211 419.905 300.707 426.642 299.418C432.349 298.326 438.107 297.525 443.895 297.016C446.133 296.826 447.94 296.751 449.204 296.725C449.853 296.681 450.506 296.702 451.151 296.788Z" fill="white"/>
<path d="M381.403 359.862C381.269 359.679 381.158 359.479 381.075 359.268L380.24 357.511C379.52 355.982 378.547 353.719 377.384 350.951C375.033 345.389 372.037 337.603 368.852 328.957C365.667 320.312 362.734 312.525 360.509 306.9C359.422 304.17 358.525 301.933 357.855 300.264L357.147 298.457C357.049 298.249 356.981 298.027 356.945 297.8C357.08 297.983 357.19 298.182 357.274 298.394L358.108 300.151C358.816 301.68 359.802 303.943 360.964 306.711C363.315 312.273 366.311 320.059 369.496 328.705C372.682 337.35 375.614 345.136 377.839 350.761C378.926 353.492 379.823 355.729 380.481 357.397C380.771 358.118 381.012 358.661 381.201 359.205C381.299 359.413 381.367 359.635 381.403 359.862Z" fill="#263238"/>
<path d="M445.968 339.044C445.766 339.16 445.549 339.249 445.324 339.309L443.453 339.941L436.539 342.179C430.699 344.075 422.635 346.78 413.787 349.763C404.939 352.746 396.837 355.4 390.959 357.17C388.027 358.067 385.638 358.75 383.982 359.205L382.073 359.698C381.851 359.768 381.622 359.815 381.391 359.837C381.593 359.721 381.81 359.631 382.035 359.571L383.906 358.939L390.82 356.702C396.66 354.806 404.724 352.101 413.572 349.118C422.42 346.135 430.51 343.481 436.387 341.711C439.332 340.814 441.709 340.131 443.377 339.676L445.286 339.183C445.508 339.113 445.737 339.066 445.968 339.044Z" fill="white"/>
<path d="M419.627 32.4355L413.117 34.7613L410.323 26.2546C405.192 10.5683 388.836 2.23857 373.807 7.53473C358.778 12.8309 350.776 30.0339 355.908 45.7202L358.702 54.2269L352.167 56.5653C349.675 57.5318 347.651 59.4214 346.517 61.8414C345.382 64.2613 345.224 67.0255 346.074 69.5592L364.187 124.91C364.563 126.164 365.188 127.33 366.023 128.338C366.859 129.347 367.888 130.177 369.051 130.779C370.214 131.382 371.485 131.744 372.791 131.846C374.096 131.947 375.409 131.785 376.651 131.369L444.11 107.239C446.635 106.274 448.687 104.368 449.835 101.921C450.983 99.474 451.138 96.6772 450.266 94.1187L432.14 38.7682C431.754 37.5174 431.121 36.3571 430.277 35.3566C429.433 34.3561 428.396 33.5359 427.228 32.9449C426.06 32.3538 424.785 32.0041 423.479 31.9166C422.173 31.8291 420.863 32.0056 419.627 32.4355ZM368.207 41.2835C366.823 37.2049 367.072 32.749 368.9 28.8494C370.729 24.9498 373.995 21.9091 378.016 20.3643C380.001 19.6851 382.103 19.4127 384.195 19.5634C386.288 19.7142 388.329 20.2849 390.197 21.2416C392.064 22.1983 393.72 23.5214 395.065 25.1319C396.41 26.7424 397.416 28.6073 398.025 30.6154L400.806 39.1221L370.988 49.7903L368.207 41.2835ZM406.127 90.4026L410.753 104.534C410.838 104.817 410.811 105.123 410.677 105.386C410.542 105.65 410.312 105.852 410.033 105.95L403.548 108.263C403.29 108.334 403.015 108.303 402.779 108.176C402.543 108.049 402.366 107.835 402.284 107.58L397.62 93.512C395.048 93.3719 392.581 92.4494 390.548 90.8681C388.515 89.2868 387.013 87.1222 386.244 84.664C385.145 81.4142 385.345 77.8651 386.804 74.7598C388.262 71.6544 390.866 69.2337 394.068 68.0045C395.65 67.4642 397.324 67.2478 398.991 67.3682C400.658 67.4885 402.283 67.9433 403.771 68.7052C405.258 69.4672 406.577 70.5208 407.648 71.8033C408.72 73.0857 409.522 74.5708 410.007 76.1699C410.821 78.667 410.888 81.3471 410.201 83.8818C409.514 86.4165 408.103 88.6958 406.14 90.4405L406.127 90.4026Z" fill="#FF7A00"/>
<path d="M412.826 34.6096C412.826 34.7866 400.755 39.3243 385.739 44.7216C370.722 50.1189 358.474 54.4544 358.411 54.328C358.348 54.2016 370.482 49.6259 385.511 44.216C400.54 38.8061 412.763 34.4453 412.826 34.6096Z" fill="#263238"/>
<path d="M427.16 36.9354C427.216 37.0451 427.262 37.1592 427.299 37.2767C427.4 37.5295 427.514 37.8581 427.665 38.2626C427.994 39.1853 428.449 40.462 429.018 42.0546L433.872 56.1861C435.894 62.1775 438.308 69.2812 440.988 77.1685C442.252 81.1248 443.744 85.2455 445.134 89.581C445.878 91.8152 446.2 94.1684 446.082 96.5203C445.975 97.7435 445.627 98.9334 445.058 100.022C444.451 101.106 443.639 102.063 442.669 102.84C440.716 104.266 438.549 105.371 436.248 106.114L429.738 108.453L417.414 112.864L396.546 120.296L382.452 125.251L378.66 126.515L377.649 126.844C377.541 126.892 377.426 126.922 377.308 126.932C377.308 126.932 377.409 126.932 377.624 126.781L378.61 126.389L382.402 124.96L396.419 119.803L417.25 112.219L429.549 107.77L436.058 105.419C438.294 104.706 440.398 103.634 442.29 102.246C443.193 101.525 443.948 100.637 444.515 99.6298C445.05 98.6234 445.373 97.5177 445.463 96.3813C445.579 94.1152 445.27 91.8473 444.553 89.6948C443.187 85.3972 441.746 81.2386 440.445 77.2823C437.815 69.3823 435.389 62.2533 433.467 56.2619C431.546 50.2706 429.928 45.4548 428.816 42.0672C428.285 40.4114 427.88 39.1221 427.552 38.1868L427.248 37.1756C427.21 37.099 427.181 37.0184 427.16 36.9354Z" fill="#263238"/>
<path d="M391.566 19.5048C391.566 19.5048 390.896 19.1762 389.657 18.6706C387.891 17.9921 386.024 17.6161 384.133 17.5582C381.331 17.4621 378.542 17.9888 375.968 19.1003C372.837 20.4844 370.161 22.723 368.245 25.5594C366.316 28.3876 365.281 31.7299 365.275 35.1531C365.301 37.9589 365.726 40.7465 366.539 43.4323C367.196 45.7328 367.878 47.5656 368.333 48.8422C368.602 49.4907 368.822 50.1582 368.991 50.8394C368.632 50.2331 368.331 49.594 368.093 48.9307C367.575 47.6667 366.829 45.8718 366.096 43.5587C365.196 40.8448 364.706 38.0117 364.643 35.1531C364.609 31.6005 365.668 28.1235 367.676 25.1928C369.659 22.2529 372.445 19.945 375.703 18.5442C378.357 17.4266 381.233 16.9336 384.108 17.1032C386.04 17.2016 387.937 17.6514 389.708 18.4304C390.181 18.6488 390.637 18.9023 391.073 19.1888C391.253 19.2678 391.419 19.3744 391.566 19.5048Z" fill="#263238"/>
<path d="M392.147 68.9651C392.349 68.8429 392.56 68.7372 392.779 68.6491C393.412 68.3636 394.067 68.1311 394.738 67.9539C395.804 67.6395 396.903 67.4528 398.012 67.3978C399.521 67.3167 401.031 67.5447 402.449 68.0677C405.685 69.2053 408.655 72.5044 410.121 76.9157C410.824 79.2831 410.824 81.8037 410.121 84.1711C409.342 86.7405 407.944 89.0797 406.051 90.984L406.127 90.6427C407.808 95.2563 409.641 100.262 411.537 105.482L411.651 105.798L411.335 105.912L408.44 106.873L402.12 108.983L401.804 109.085L401.703 108.769C399.971 103.536 398.075 98.6565 396.647 93.8659L396.925 94.0808C394.454 93.8756 392.098 92.9481 390.15 91.4138C388.388 90.0564 386.943 88.331 385.916 86.3578C384.989 84.6079 384.528 82.6493 384.576 80.6698C384.634 78.6467 385.139 76.6616 386.055 74.8566C386.971 73.0516 388.274 71.4714 389.872 70.2291C390.53 69.6952 391.268 69.2686 392.059 68.9651C391.345 69.3888 390.653 69.8486 389.986 70.3429C388.23 71.8279 386.886 73.7385 386.08 75.8919C385.388 77.5157 385.065 79.2724 385.133 81.036C385.2 82.7996 385.658 84.5264 386.472 86.0923C387.482 87.9906 388.892 89.6467 390.605 90.9461C392.463 92.4045 394.71 93.2837 397.064 93.4741H397.279L397.342 93.6637C398.733 98.3658 400.641 103.283 402.398 108.541L401.981 108.339L408.301 106.228L411.183 105.255L410.981 105.684C409.097 100.464 407.277 95.4459 405.609 90.8323V90.6427L405.76 90.4911C407.598 88.6657 408.968 86.424 409.755 83.9562C410.425 81.6916 410.425 79.2814 409.755 77.0168C408.377 72.7698 405.533 69.5466 402.449 68.409C401.084 67.8826 399.626 67.6375 398.164 67.6885C397.072 67.7135 395.986 67.8619 394.928 68.1309C393.045 68.5986 392.16 69.0283 392.147 68.9651Z" fill="#263238"/>
<path d="M353.077 433.933L226.816 433.351C219.525 433.311 212.547 430.378 207.416 425.198C202.285 420.017 199.42 413.012 199.45 405.72L200.79 89.2018C200.805 85.5893 201.532 82.0152 202.929 78.6838C204.326 75.3523 206.366 72.3289 208.932 69.7863C211.498 67.2436 214.54 65.2316 217.884 63.8653C221.228 62.499 224.809 61.8052 228.421 61.8235L354.67 62.405C361.961 62.4418 368.94 65.371 374.073 70.5494C379.207 75.7278 382.075 82.7318 382.048 90.0234L380.708 406.529C380.693 410.143 379.967 413.718 378.57 417.051C377.173 420.384 375.134 423.409 372.568 425.953C370.002 428.498 366.96 430.512 363.616 431.881C360.272 433.251 356.691 433.947 353.077 433.933Z" fill="#455A64"/>
<path d="M354.48 73.288H330.009C329.211 73.3028 328.423 73.4747 327.691 73.794C326.959 74.1133 326.297 74.5737 325.743 75.1489C325.189 75.724 324.754 76.4027 324.462 77.1461C324.17 77.8895 324.028 78.6831 324.043 79.4816V83.9182C324.058 84.7161 323.916 85.509 323.624 86.2517C323.332 86.9944 322.896 87.6723 322.342 88.2464C321.788 88.8206 321.126 89.2797 320.394 89.5977C319.662 89.9156 318.875 90.086 318.077 90.0992L270.373 89.8843C268.76 89.8413 267.229 89.1595 266.117 87.9888C265.006 86.818 264.405 85.254 264.445 83.6401V79.2035C264.486 77.5918 263.886 76.0296 262.778 74.8592C261.669 73.6888 260.141 73.0056 258.53 72.9593H249.922L228.497 72.8582C223.401 72.8279 218.501 74.818 214.869 78.3929C211.237 81.9679 209.17 86.8362 209.12 91.932L207.856 400.879C207.844 403.407 208.331 405.913 209.287 408.253C210.244 410.593 211.652 412.721 213.432 414.517C215.211 416.313 217.327 417.741 219.658 418.719C221.989 419.697 224.49 420.206 227.018 420.218L353.014 420.799C355.544 420.811 358.051 420.324 360.392 419.367C362.734 418.41 364.864 417.001 366.661 415.22C368.458 413.439 369.887 411.322 370.865 408.99C371.844 406.657 372.354 404.154 372.366 401.625L373.63 92.6777C373.66 87.5676 371.66 82.6545 368.069 79.0186C364.478 75.3826 359.59 73.3214 354.48 73.288Z" fill="white"/>
<rect width="97.3203" height="29.6156" transform="translate(242.098 349.965)" fill="#FF7A00"/>
<path d="M278.163 368.773V361.298H279.068V367.97H282.543V368.773H278.163ZM286.105 368.89C285.599 368.89 285.155 368.769 284.773 368.528C284.393 368.287 284.096 367.95 283.882 367.517C283.67 367.084 283.565 366.578 283.565 365.999C283.565 365.415 283.67 364.905 283.882 364.47C284.096 364.034 284.393 363.696 284.773 363.455C285.155 363.214 285.599 363.094 286.105 363.094C286.611 363.094 287.054 363.214 287.433 363.455C287.815 363.696 288.112 364.034 288.324 364.47C288.538 364.905 288.645 365.415 288.645 365.999C288.645 366.578 288.538 367.084 288.324 367.517C288.112 367.95 287.815 368.287 287.433 368.528C287.054 368.769 286.611 368.89 286.105 368.89ZM286.105 368.116C286.489 368.116 286.806 368.017 287.054 367.82C287.302 367.623 287.486 367.364 287.605 367.043C287.724 366.722 287.784 366.374 287.784 365.999C287.784 365.624 287.724 365.275 287.605 364.951C287.486 364.628 287.302 364.366 287.054 364.167C286.806 363.967 286.489 363.867 286.105 363.867C285.72 363.867 285.404 363.967 285.156 364.167C284.908 364.366 284.724 364.628 284.605 364.951C284.486 365.275 284.426 365.624 284.426 365.999C284.426 366.374 284.486 366.722 284.605 367.043C284.724 367.364 284.908 367.623 285.156 367.82C285.404 368.017 285.72 368.116 286.105 368.116ZM292.223 370.992C291.807 370.992 291.449 370.938 291.15 370.831C290.851 370.727 290.601 370.588 290.402 370.415C290.205 370.245 290.048 370.062 289.931 369.868L290.617 369.386C290.695 369.488 290.793 369.605 290.913 369.736C291.032 369.87 291.195 369.986 291.402 370.083C291.611 370.183 291.885 370.233 292.223 370.233C292.676 370.233 293.049 370.123 293.343 369.904C293.638 369.685 293.785 369.342 293.785 368.875V367.736H293.712C293.649 367.838 293.559 367.965 293.442 368.116C293.328 368.264 293.162 368.397 292.946 368.514C292.731 368.628 292.442 368.685 292.077 368.685C291.624 368.685 291.218 368.578 290.858 368.364C290.5 368.15 290.217 367.838 290.007 367.43C289.801 367.021 289.697 366.524 289.697 365.94C289.697 365.366 289.798 364.866 290 364.44C290.202 364.012 290.483 363.681 290.843 363.448C291.203 363.212 291.62 363.094 292.092 363.094C292.457 363.094 292.746 363.154 292.96 363.276C293.177 363.395 293.342 363.532 293.457 363.685C293.573 363.836 293.663 363.96 293.727 364.057H293.814V363.167H294.646V368.933C294.646 369.415 294.537 369.807 294.318 370.109C294.101 370.413 293.809 370.635 293.442 370.777C293.077 370.92 292.671 370.992 292.223 370.992ZM292.194 367.911C292.539 367.911 292.831 367.832 293.07 367.674C293.308 367.516 293.489 367.288 293.614 366.992C293.738 366.695 293.8 366.34 293.8 365.926C293.8 365.522 293.739 365.166 293.617 364.856C293.496 364.547 293.315 364.305 293.077 364.13C292.839 363.955 292.544 363.867 292.194 363.867C291.829 363.867 291.525 363.96 291.281 364.145C291.04 364.33 290.859 364.578 290.737 364.889C290.618 365.201 290.559 365.546 290.559 365.926C290.559 366.315 290.619 366.66 290.741 366.959C290.865 367.256 291.048 367.489 291.289 367.66C291.532 367.827 291.834 367.911 292.194 367.911ZM296.223 368.773V363.167H297.085V368.773H296.223ZM296.661 362.232C296.493 362.232 296.348 362.175 296.227 362.061C296.108 361.946 296.048 361.809 296.048 361.648C296.048 361.488 296.108 361.35 296.227 361.236C296.348 361.121 296.493 361.064 296.661 361.064C296.829 361.064 296.973 361.121 297.092 361.236C297.213 361.35 297.274 361.488 297.274 361.648C297.274 361.809 297.213 361.946 297.092 362.061C296.973 362.175 296.829 362.232 296.661 362.232ZM299.524 365.4V368.773H298.662V363.167H299.494V364.043H299.567C299.699 363.758 299.898 363.529 300.166 363.356C300.434 363.181 300.779 363.094 301.202 363.094C301.582 363.094 301.914 363.171 302.199 363.327C302.484 363.481 302.705 363.714 302.863 364.028C303.021 364.339 303.1 364.734 303.1 365.211V368.773H302.239V365.269C302.239 364.829 302.125 364.485 301.896 364.24C301.667 363.991 301.353 363.867 300.954 363.867C300.679 363.867 300.434 363.927 300.217 364.046C300.003 364.165 299.834 364.339 299.71 364.568C299.586 364.797 299.524 365.074 299.524 365.4Z" fill="#E8E8E3"/>
<path d="M262.529 164.107L230.02 163.959L229.992 169.925L262.502 170.073L262.529 164.107Z" fill="#FF7A00"/>
<path opacity="0.1" d="M262.529 164.107L230.02 163.959L229.992 169.925L262.502 170.073L262.529 164.107Z" fill="black"/>
<path d="M357.83 200.737C358.085 200.711 358.336 200.652 358.575 200.56C358.925 200.423 359.23 200.191 359.453 199.889C359.677 199.587 359.811 199.228 359.839 198.854C359.839 196.844 359.839 193.912 359.839 190.145C359.839 188.261 359.839 186.151 359.839 183.825C359.839 183.256 359.839 182.662 359.839 182.068C359.922 181.491 359.796 180.904 359.486 180.412C359.312 180.176 359.085 179.983 358.824 179.85C358.563 179.716 358.275 179.644 357.981 179.641H356.01H337.745L232.024 179.249C231.753 179.245 231.486 179.305 231.243 179.426C231.001 179.547 230.792 179.725 230.633 179.944C230.328 180.439 230.211 181.027 230.305 181.6C230.305 182.864 230.305 184.128 230.305 185.392C230.305 187.92 230.305 190.448 230.305 192.976C230.305 194.24 230.305 195.504 230.305 196.768C230.252 197.357 230.252 197.949 230.305 198.538C230.371 198.79 230.495 199.024 230.666 199.221C230.836 199.418 231.05 199.574 231.291 199.675C231.54 199.775 231.806 199.822 232.074 199.814H238.508L266.582 199.966L314.108 200.257L346.15 200.51L354.859 200.611H357.122C357.64 200.611 357.893 200.611 357.893 200.611H357.122H354.859H346.15H314.108L266.582 200.459L238.508 200.345H232.074C231.72 200.36 231.367 200.299 231.038 200.168C230.705 200.026 230.409 199.81 230.173 199.536C229.936 199.262 229.765 198.938 229.673 198.588C229.6 198.257 229.574 197.916 229.597 197.577V196.642C229.597 195.378 229.597 194.114 229.597 192.85C229.597 190.322 229.597 187.794 229.597 185.266C229.597 184.002 229.597 182.738 229.597 181.474C229.573 181.137 229.573 180.799 229.597 180.463C229.644 180.091 229.788 179.738 230.014 179.439C230.232 179.134 230.521 178.886 230.855 178.716C231.19 178.547 231.56 178.461 231.935 178.465L337.656 179.047L355.921 179.173H357.893C358.24 179.174 358.583 179.258 358.891 179.418C359.199 179.579 359.463 179.811 359.663 180.096C360.019 180.646 360.163 181.306 360.067 181.954C360.067 182.548 360.067 183.142 360.067 183.711C360.067 186.012 360.067 188.122 360.067 190.031C360.067 193.823 359.979 196.73 359.953 198.753C359.922 199.141 359.781 199.513 359.546 199.825C359.311 200.136 358.992 200.374 358.626 200.51C358.387 200.658 358.111 200.737 357.83 200.737Z" fill="#E0E0E0"/>
<path d="M299.243 185.594H239.785V191.169H299.243V185.594Z" fill="#FF7A00"/>
<path opacity="0.2" d="M299.243 185.594H239.785V191.169H299.243V185.594Z" fill="white"/>
<path d="M296.892 119.437C297.77 119.05 298.515 118.414 299.034 117.607C299.554 116.8 299.824 115.858 299.812 114.899C299.845 114.275 299.75 113.651 299.534 113.066C299.318 112.48 298.985 111.944 298.555 111.491C298.125 111.038 297.607 110.677 297.034 110.431C296.46 110.184 295.842 110.057 295.217 110.057C294.593 110.057 293.975 110.184 293.401 110.431C292.827 110.677 292.31 111.038 291.88 111.491C291.45 111.944 291.117 112.48 290.901 113.066C290.685 113.651 290.59 114.275 290.623 114.899C290.604 115.868 290.872 116.821 291.394 117.637C291.916 118.454 292.668 119.098 293.555 119.487C286.477 120.549 286.793 128.234 286.793 128.234L303.528 128.31C303.528 128.31 303.92 120.486 296.892 119.437Z" fill="#FF7A00"/>
<path opacity="0.1" d="M296.892 119.437C297.77 119.05 298.515 118.414 299.034 117.607C299.554 116.8 299.824 115.858 299.812 114.899C299.845 114.275 299.75 113.651 299.534 113.066C299.318 112.48 298.985 111.944 298.555 111.491C298.125 111.038 297.607 110.677 297.034 110.431C296.46 110.184 295.842 110.057 295.217 110.057C294.593 110.057 293.975 110.184 293.401 110.431C292.827 110.677 292.31 111.038 291.88 111.491C291.45 111.944 291.117 112.48 290.901 113.066C290.685 113.651 290.59 114.275 290.623 114.899C290.604 115.868 290.872 116.821 291.394 117.637C291.916 118.454 292.668 119.098 293.555 119.487C286.477 120.549 286.793 128.234 286.793 128.234L303.528 128.31C303.528 128.31 303.92 120.486 296.892 119.437Z" fill="black"/>
<path d="M324.086 133.267L264.439 132.996L264.407 140.125L324.054 140.396L324.086 133.267Z" fill="#FF7A00"/>
<path opacity="0.2" d="M324.086 133.267L264.439 132.996L264.407 140.125L324.054 140.396L324.086 133.267Z" fill="white"/>
<path d="M104.802 170.212H104.208L102.489 170.338C101.559 170.394 100.634 170.516 99.7208 170.704C99.1296 170.788 98.5431 170.901 97.9638 171.046L96.0046 171.589C92.67 172.612 89.5237 174.171 86.6889 176.203C82.9436 178.921 79.8161 182.402 77.5123 186.416C76.1582 188.73 75.0806 191.195 74.3017 193.76C73.4833 196.548 73.0121 199.426 72.8987 202.33C72.8234 203.855 72.8487 205.384 72.9745 206.905C72.9745 207.676 73.1894 208.448 73.2905 209.231C73.3756 210.021 73.5235 210.803 73.7329 211.57C74.8696 216.642 77.1758 221.378 80.4677 225.401C83.7595 229.423 87.946 232.621 92.6929 234.739C96.1286 236.221 99.8111 237.049 103.551 237.178C107.413 237.391 111.279 236.837 114.927 235.548L116.039 235.131H116.191L116.317 235.206L132.256 243.296L131.788 243.7C130.082 238.417 128.439 233.298 126.846 228.381V228.191L126.985 228.052C130.852 224.158 133.722 219.388 135.353 214.148C136.83 209.358 137.261 204.306 136.617 199.334C136.044 194.916 134.623 190.65 132.433 186.77C130.545 183.437 128.109 180.446 125.228 177.922C122.851 175.924 120.22 174.249 117.404 172.942C115.273 172.023 113.054 171.324 110.781 170.856L108.253 170.439L106.42 170.3L105.308 170.224H104.928C105.054 170.21 105.182 170.21 105.308 170.224H106.433L108.265 170.3L110.793 170.667C113.095 171.1 115.344 171.774 117.505 172.676C120.37 173.968 123.048 175.639 125.468 177.644C128.403 180.157 130.89 183.148 132.825 186.492C135.077 190.413 136.542 194.737 137.135 199.22C137.833 204.269 137.432 209.408 135.96 214.287C134.318 219.636 131.404 224.507 127.466 228.482L127.541 228.153C129.134 233.07 130.79 238.189 132.509 243.46L132.749 244.231L132.029 243.865L116.09 235.788H116.368L115.23 236.205C111.513 237.513 107.575 238.08 103.639 237.873C99.819 237.728 96.0595 236.871 92.5539 235.345C85.867 232.482 80.3035 227.504 76.716 221.176C75.0651 218.253 73.8594 215.101 73.1389 211.822C72.9415 211.036 72.7938 210.238 72.6965 209.433C72.5953 208.637 72.431 207.853 72.3931 207.07C72.051 202.572 72.5264 198.05 73.7961 193.722C74.5944 191.121 75.702 188.626 77.0952 186.29C79.454 182.239 82.6466 178.736 86.4614 176.013C89.3429 173.976 92.542 172.43 95.9288 171.438L97.9133 170.932C98.4973 170.797 99.088 170.691 99.6829 170.616C100.605 170.445 101.539 170.344 102.476 170.313L104.208 170.249C104.405 170.223 104.603 170.21 104.802 170.212Z" fill="#FF7A00"/>
<path d="M112.007 199.688H109.668L104.612 192.584V187.92C104.612 187.92 100.997 187.693 101.427 193.798C101.857 199.903 101.427 198.348 101.427 198.348C101.427 198.348 93.7547 198.348 93.1227 199.043C92.4907 199.739 92.4528 207.146 92.3643 211.279C92.3159 212.275 92.6018 213.259 93.1766 214.075C93.7514 214.89 94.5822 215.49 95.5369 215.779C95.8046 215.853 96.0808 215.891 96.3585 215.892C98.2798 215.892 108.051 214.338 108.051 214.338H112.083L112.007 199.688Z" fill="#FF7A00"/>
<path d="M118.693 198.437L117.252 214.414H113.258V198.765L118.693 198.437Z" fill="#FF7A00"/>
<path d="M166.334 523.702V512.895L146.957 512.755L146.792 529.099L147.993 529.187C153.34 529.529 175.194 530.034 178.784 528.922C182.778 527.683 166.334 523.702 166.334 523.702Z" fill="#FF7A00"/>
<path d="M179.239 527.911C179.239 528.088 171.984 528.239 163.047 528.239C154.111 528.239 146.855 528.088 146.855 527.911C146.855 527.734 154.111 527.582 163.047 527.582C171.984 527.582 179.239 527.734 179.239 527.911Z" fill="#263238"/>
<path d="M166.675 525.914C166.51 525.825 166.675 525.256 167.067 524.65C167.458 524.043 167.989 523.79 168.116 523.917C168.242 524.043 167.977 524.523 167.598 525.042C167.218 525.56 166.839 526.002 166.675 525.914Z" fill="#263238"/>
<path d="M167.914 526.622C167.737 526.622 167.825 525.914 168.204 525.244C168.583 524.574 169.089 524.169 169.228 524.271C169.367 524.372 169.14 524.94 168.786 525.535C168.432 526.129 168.078 526.685 167.914 526.622Z" fill="#263238"/>
<path d="M152.695 527.86C152.619 527.86 152.328 527.633 151.911 527.152C151.402 526.535 150.835 525.968 150.218 525.459C149.61 524.974 148.887 524.656 148.119 524.536C147.525 524.46 147.146 524.536 147.108 524.46C147.07 524.384 147.437 524.119 148.132 524.068C149.049 524.049 149.944 524.353 150.66 524.928C151.33 525.474 151.896 526.138 152.328 526.887C152.619 527.443 152.771 527.81 152.695 527.86Z" fill="#263238"/>
<path d="M166.738 523.879C166.827 524.03 166.498 524.41 165.942 524.612C165.386 524.814 164.893 524.738 164.867 524.612C164.842 524.485 165.234 524.22 165.714 524.043C166.195 523.866 166.637 523.727 166.738 523.879Z" fill="#263238"/>
<path d="M166.435 522.83C166.435 523.019 165.929 523.171 165.272 523.183C164.615 523.196 164.096 523.044 164.109 522.867C164.122 522.691 164.64 522.526 165.272 522.514C165.904 522.501 166.409 522.653 166.435 522.83Z" fill="#263238"/>
<path d="M214.05 523.702V512.895L194.673 512.755L194.508 528.935L195.709 529.023C201.056 529.364 222.923 530.034 226.5 528.922C230.494 527.683 214.05 523.702 214.05 523.702Z" fill="#FF7A00"/>
<path d="M226.955 527.936C226.955 528.113 219.712 528.265 210.763 528.265C201.814 528.265 194.584 528.113 194.584 527.936C194.584 527.759 201.827 527.608 210.763 527.608C219.7 527.608 226.955 527.759 226.955 527.936Z" fill="#263238"/>
<path d="M214.391 525.914C214.239 525.825 214.391 525.256 214.783 524.65C215.175 524.043 215.706 523.79 215.832 523.917C215.958 524.043 215.693 524.523 215.314 525.042C214.934 525.56 214.555 526.002 214.391 525.914Z" fill="#263238"/>
<path d="M215.63 526.622C215.465 526.622 215.541 525.914 215.933 525.244C216.325 524.574 216.818 524.169 216.957 524.271C217.096 524.372 216.856 524.94 216.502 525.535C216.148 526.129 215.807 526.685 215.63 526.622Z" fill="#263238"/>
<path d="M200.411 527.86C200.335 527.86 200.057 527.633 199.627 527.152C199.118 526.535 198.551 525.968 197.934 525.459C197.326 524.974 196.603 524.656 195.835 524.536C195.254 524.46 194.862 524.536 194.824 524.46C194.786 524.384 195.153 524.119 195.848 524.068C196.765 524.049 197.66 524.353 198.376 524.928C199.05 525.471 199.616 526.135 200.044 526.887C200.335 527.443 200.487 527.81 200.411 527.86Z" fill="#263238"/>
<path d="M214.454 523.879C214.543 524.03 214.214 524.41 213.658 524.612C213.102 524.814 212.609 524.738 212.583 524.612C212.558 524.485 212.95 524.22 213.43 524.043C213.911 523.866 214.353 523.727 214.454 523.879Z" fill="#263238"/>
<path d="M214.176 522.83C214.176 523.019 213.67 523.171 213.013 523.183C212.356 523.196 211.85 523.044 211.863 522.867C211.875 522.691 212.381 522.526 213.013 522.514C213.645 522.501 214.176 522.653 214.176 522.83Z" fill="#263238"/>
<path d="M285.44 202.772C284.935 202.254 283.683 202.507 283.683 202.507C283.809 201.779 283.809 201.035 283.683 200.307C283.456 199.6 281.863 199.739 281.863 199.739C281.79 199.142 281.79 198.54 281.863 197.944C281.876 197.812 281.848 197.679 281.782 197.563C281.716 197.448 281.617 197.356 281.497 197.299C280.743 196.992 279.934 196.845 279.12 196.869C278.147 196.174 282.091 190.65 283.557 188.881C285.023 187.111 284.758 185.733 283.456 185.733C282.558 185.733 277.957 191.042 276.542 192.824C275.126 194.607 271.372 199.562 271.246 195.605C271.119 191.649 269.527 188.666 268.528 188.16C267.529 187.655 266.468 188.843 267.011 189.943C267.489 191.192 267.787 192.503 267.896 193.836C268.033 194.898 267.986 195.975 267.757 197.021C267.338 198.967 266.767 200.877 266.051 202.734H265.949C265.949 202.734 238.369 229.19 236.372 231.073C234.59 232.767 198.743 229.063 191.55 228.305C189.106 227.947 186.639 227.778 184.169 227.799C181.047 227.938 180.49 228.381 177.381 228.419C169.528 228.506 161.694 229.195 153.946 230.479C150.438 231.075 147.162 232.624 144.473 234.955C141.785 237.287 139.789 240.312 138.703 243.7C131.46 266.326 115.053 319.882 112.159 349.965C109.971 353.931 107.997 358.011 106.243 362.188C104.208 367.724 104.701 367.914 105.384 368.04C107.229 368.381 109.327 358.446 110.111 360.848C110.895 363.25 106.129 372.692 108.063 372.97C110.591 373.324 112.601 362.858 112.841 362.023C113.081 361.189 114.333 361.455 114.105 362.238C113.739 363.351 110.187 375.144 112.664 375.523C114.029 375.725 114.181 373.235 114.181 373.235C114.181 373.235 116.709 361.948 117.859 362.175C119.009 362.403 117.783 369.064 117.202 371.289C116.621 373.513 117.429 374.638 118.618 374.095C119.427 373.715 121.361 366.953 121.891 364.754C122.422 362.554 123.749 356.462 125.532 359.988C127.314 363.515 130.019 365.563 131.131 365.613C131.382 365.584 131.618 365.481 131.81 365.317C132.001 365.152 132.139 364.935 132.206 364.691C132.272 364.448 132.265 364.19 132.183 363.951C132.102 363.712 131.952 363.503 131.751 363.351C130.794 362.416 129.973 361.353 129.311 360.191C128.721 359.286 128.294 358.285 128.047 357.233C127.538 355.136 127.241 352.993 127.162 350.837L126.96 349.573C129.791 335.555 137.944 294.412 149.712 268.134L154.541 278.069L156.639 285.425L143.771 317.189L198.654 316.469L190.463 284.945L200.411 252.081C211.168 252.321 238.786 252.725 243.387 250.64C249.176 248.112 279.12 210.293 279.12 210.293C281.072 208.776 282.941 207.156 284.72 205.439C284.72 205.439 286.54 203.91 285.44 202.772Z" fill="#FFBE9D"/>
<path d="M141.357 293.717C142.95 288.282 151.128 261.409 151.128 261.409C151.128 261.409 155.147 283.314 154.085 285.956C153.109 288.218 151.955 290.398 150.635 292.478C141.357 306.597 142.57 313.663 142.57 313.663L198.629 311.956C198.755 304.12 194.116 285.893 193.156 282.986C192.195 280.078 195.393 270.56 195.393 270.56C195.393 270.56 201.713 264.127 201.485 260.815C201.365 257.84 200.998 254.881 200.386 251.967L234.514 253.231L233.439 230.1L184.421 225.195C182.715 230.011 167.282 227.648 167.282 227.648C150.622 228.204 149.586 231.263 142.659 236.647C135.732 242.032 124.268 288.244 124.268 288.244L141.357 293.717Z" fill="#FF7A00"/>
<path d="M174.499 288.244C173.528 288.417 172.538 288.468 171.554 288.395C169.721 288.395 167.206 288.269 164.438 287.991C161.669 287.713 159.167 287.321 157.385 286.967C156.402 286.841 155.438 286.594 154.515 286.234C155.504 286.234 156.49 286.328 157.46 286.512C159.255 286.74 161.745 287.056 164.501 287.334C167.256 287.612 169.759 287.801 171.567 287.928C172.552 287.94 173.534 288.046 174.499 288.244Z" fill="#263238"/>
<path d="M178.342 283.479C177.37 283.955 176.342 284.307 175.283 284.528C170.24 285.853 165.037 286.47 159.824 286.36C158.745 286.396 157.667 286.294 156.613 286.057C157.678 285.923 158.751 285.868 159.824 285.893C161.808 285.83 164.539 285.691 167.547 285.337C170.555 284.983 173.235 284.477 175.131 284.073C176.184 283.791 177.258 283.593 178.342 283.479Z" fill="#263238"/>
<path d="M197.2 262.218C197.175 263.182 197.044 264.14 196.809 265.075C196.48 266.832 195.974 269.233 195.33 271.862C194.685 274.491 194.066 276.918 193.51 278.562C193.286 279.502 192.955 280.414 192.524 281.279C192.594 280.318 192.772 279.369 193.055 278.448C193.535 276.476 194.078 274.201 194.685 271.711C195.292 269.221 195.873 266.945 196.354 264.974C196.525 264.024 196.809 263.099 197.2 262.218Z" fill="#263238"/>
<path d="M141.951 290.494C139.027 290.042 136.141 289.37 133.318 288.484C130.433 287.809 127.603 286.922 124.849 285.83C127.772 286.288 130.657 286.96 133.482 287.839C136.367 288.511 139.198 289.399 141.951 290.494Z" fill="#263238"/>
<path d="M200.992 251.689C200.516 251.771 200.028 251.771 199.551 251.689C198.231 251.554 196.935 251.243 195.696 250.766C193.629 249.989 191.746 248.788 190.17 247.241C188.594 245.693 187.359 243.833 186.545 241.779C185.645 239.52 185.261 237.089 185.42 234.663C185.476 232.662 186.075 230.713 187.152 229.025C187.909 227.888 189.04 227.052 190.35 226.662C190.699 226.565 191.061 226.518 191.424 226.523C191.677 226.523 191.803 226.523 191.803 226.523C191.803 226.523 191.272 226.523 190.425 226.864C189.224 227.308 188.206 228.14 187.531 229.228C185.812 231.933 185.332 236.875 187.164 241.488C188.017 243.664 189.353 245.617 191.07 247.202C192.477 248.498 194.098 249.542 195.861 250.286C197.515 250.94 199.236 251.41 200.992 251.689Z" fill="#263238"/>
<path d="M230.456 252.776C230.14 248.9 230.039 245.009 230.153 241.122C230.054 237.238 230.172 233.351 230.507 229.48C230.823 233.352 230.925 237.239 230.81 241.122C230.917 245.01 230.798 248.901 230.456 252.776Z" fill="#263238"/>
<path d="M184.093 226.611C184.232 223.792 184.523 220.607 184.523 220.607C184.523 220.607 191.5 219.836 191.917 212.631C192.334 205.427 191.917 188.805 191.917 188.805L179.277 182.333L165.247 193.368L167.408 229.392L180.276 230.214C181.259 230.241 182.213 229.877 182.929 229.202C183.645 228.526 184.063 227.595 184.093 226.611Z" fill="#FFBE9D"/>
<path d="M185.344 206.931C185.344 206.931 185.344 207.07 185.23 207.234C185.136 207.353 185.015 207.448 184.876 207.509C184.737 207.571 184.586 207.598 184.434 207.588C183.625 207.588 182.842 206.653 182.563 205.566C182.431 205.039 182.431 204.487 182.563 203.96C182.589 203.73 182.672 203.51 182.805 203.321C182.937 203.131 183.115 202.977 183.322 202.873C183.492 202.803 183.683 202.803 183.853 202.873C183.979 202.936 184.081 203.038 184.143 203.164C184.232 203.379 184.143 203.518 184.143 203.505C184.143 203.493 184.143 203.379 184.017 203.252C183.951 203.162 183.854 203.099 183.744 203.076C183.635 203.052 183.52 203.07 183.423 203.126C183.268 203.22 183.139 203.351 183.048 203.508C182.958 203.665 182.908 203.842 182.905 204.024C182.798 204.494 182.798 204.982 182.905 205.452C183.157 206.438 183.84 207.234 184.447 207.31C184.565 207.326 184.686 207.317 184.801 207.285C184.917 207.252 185.024 207.196 185.117 207.12C185.268 207.019 185.319 206.918 185.344 206.931Z" fill="#EB996E"/>
<path d="M196.253 184.912C195.279 181.6 191.753 179.957 188.542 179.047C183.65 177.656 178.367 177.05 173.589 178.807C168.811 180.564 163.073 183.648 163.073 188.919C160.254 188.691 158.636 191.156 157.524 194.215C156.812 196.078 156.386 198.039 156.26 200.029C155.906 206.931 153.972 216.461 149.497 221.517C146.969 224.336 143.468 226.283 142.027 229.796C140.763 232.843 141.42 236.458 140.245 239.542C139.196 242.26 136.882 244.193 135.189 246.557C133.463 249.239 132.448 252.315 132.238 255.496C132.027 258.678 132.63 261.861 133.988 264.746C135.356 267.557 137.282 270.06 139.648 272.103C142.015 274.146 144.772 275.685 147.753 276.628C153.657 278.424 159.953 278.485 165.891 276.805C170.348 275.739 174.505 273.678 178.051 270.775C181.679 267.813 184.171 263.686 185.104 259.096C186.001 253.939 184.561 248.693 183.486 243.561C180.124 227.344 181.085 226.497 185.332 211.443C185.433 211.178 185.483 210.9 185.559 210.634C185.635 210.369 185.673 210.242 185.723 210.04C185.844 209.445 185.908 208.84 185.913 208.233C185.293 208.463 184.619 208.512 183.972 208.373C183.325 208.234 182.731 207.914 182.26 207.449C181.788 206.953 181.459 206.339 181.307 205.672C181.156 205.004 181.188 204.308 181.401 203.657C181.699 202.945 182.143 202.304 182.705 201.775C183.267 201.246 183.933 200.841 184.662 200.585C186.065 200.004 187.569 199.701 188.947 199.056C191.866 197.666 193.889 194.784 195.267 191.763C196.399 189.669 196.749 187.24 196.253 184.912Z" fill="#263238"/>
<path d="M185.85 207.272C186.117 207.667 186.337 208.091 186.507 208.536C186.886 209.332 187.392 210.457 187.948 211.759L188.049 211.999H187.784L186.52 212.113C185.648 212.113 184.914 212.277 184.055 212.265C183.98 212.248 183.911 212.212 183.853 212.162C183.796 212.111 183.752 212.046 183.726 211.974C183.689 211.859 183.689 211.735 183.726 211.62C183.756 211.45 183.794 211.281 183.84 211.115L184.068 210.217C184.182 209.618 184.36 209.034 184.598 208.473C184.575 209.083 184.486 209.689 184.333 210.28L184.156 211.178C184.093 211.481 183.979 211.949 184.156 211.911C184.788 211.911 185.685 211.772 186.52 211.721L187.784 211.608L187.619 211.886C187.076 210.622 186.621 209.433 186.355 208.612C186.123 208.192 185.952 207.741 185.85 207.272Z" fill="#FF7A00"/>
<path d="M142.57 313.663L198.629 311.956L223.024 407.186L218.537 516.421H188.896L192.524 409.512L170.846 343.215L174.183 520.656L144.226 521.098L141.079 354.313C140.94 349.674 139.423 339.221 139.992 334.62L142.57 313.663Z" fill="#263238"/>
<path d="M178.304 344.568C177.386 344.625 176.465 344.57 175.561 344.403C173.867 344.201 171.554 343.847 169.013 343.342C166.473 342.836 164.198 342.255 162.554 341.787C161.676 341.594 160.826 341.288 160.026 340.877C160.026 340.687 164.147 341.673 169.203 342.697C174.259 343.721 178.329 344.378 178.304 344.568Z" fill="#455A64"/>
<path d="M218.233 510.43C218.233 510.607 211.522 510.758 203.242 510.758C194.963 510.758 188.239 510.607 188.239 510.43C188.239 510.253 194.951 510.101 203.242 510.101C211.534 510.101 218.233 510.24 218.233 510.43Z" fill="#455A64"/>
<path d="M173.918 516.042C173.918 516.232 167.395 516.371 159.356 516.371C151.317 516.371 144.808 516.232 144.808 516.042C144.808 515.852 151.33 515.713 159.356 515.713C167.383 515.713 173.918 515.865 173.918 516.042Z" fill="#455A64"/>
<path d="M170.05 515.587C169.873 515.587 169.089 476.82 168.293 429.003C167.496 381.186 167.029 342.394 167.193 342.394C167.357 342.394 168.166 381.148 168.95 428.99C169.734 476.833 170.239 515.587 170.05 515.587Z" fill="#455A64"/>
<path d="M214.252 510.43C214.238 510.257 214.238 510.084 214.252 509.911V508.395C214.252 507.03 214.353 505.07 214.429 502.58C214.606 497.524 214.859 490.18 215.175 481.181C215.857 463.08 216.818 438.129 217.867 410.586C217.867 410.321 217.867 410.068 217.867 409.841V409.929C211.231 383.385 205.227 359.293 200.866 341.863L195.81 321.247C195.229 318.833 194.786 316.949 194.47 315.635C194.319 315.015 194.218 314.535 194.129 314.168C194.08 314.004 194.05 313.834 194.041 313.663C194.106 313.822 194.157 313.987 194.192 314.156C194.293 314.51 194.42 314.99 194.597 315.597C194.938 316.861 195.431 318.782 196.063 321.184C197.327 326.063 199.109 333.091 201.334 341.749C205.733 359.167 211.8 383.195 218.524 409.777V409.866C218.524 410.093 218.524 410.359 218.524 410.612C217.399 438.154 216.375 463.093 215.63 481.193C215.238 490.206 214.909 497.499 214.682 502.58C214.555 505.108 214.454 507.03 214.391 508.395C214.391 509.039 214.315 509.545 214.303 509.911C214.304 510.086 214.287 510.259 214.252 510.43Z" fill="#455A64"/>
<path d="M204.582 407.616C202.453 408.316 200.26 408.803 198.035 409.07C195.305 409.537 192.979 409.866 191.93 409.916V409.664C192.271 409.765 192.448 409.828 192.448 409.879C192.448 409.929 192.233 409.879 191.879 409.879H191.121L191.879 409.651C192.865 409.36 195.191 408.88 197.921 408.387C200.111 407.912 202.342 407.654 204.582 407.616Z" fill="#455A64"/>
<path d="M204.064 411.244C202.092 411.334 200.117 411.245 198.161 410.978C196.187 410.938 194.22 410.722 192.284 410.334C196.234 410.011 200.21 410.318 204.064 411.244Z" fill="#455A64"/>
<path opacity="0.2" d="M142.33 315.673C142.994 316.525 143.83 317.228 144.784 317.736C145.738 318.243 146.789 318.544 147.867 318.618C150.124 318.885 152.408 318.843 154.654 318.491C169.127 316.886 184.459 315.407 198.629 311.956C180.288 312.98 160.911 312.639 142.57 313.663L142.381 315.23" fill="black"/>
<g opacity="0.2">
<path d="M161.227 341.521L171.567 381.641L170.846 343.215L161.227 341.521Z" fill="black"/>
</g>
</g>
<defs>
<clipPath id="clip0_27_206">
<rect width="541" height="531" fill="white"/>
</clipPath>
</defs>
</svg>
