<svg width="60" height="60" viewBox="0 0 60 60" fill="none" xmlns="http://www.w3.org/2000/svg">
<path d="M30 42.5L20.4844 29.0625C18.9269 27.2235 17.9238 24.9799 17.5921 22.593C17.2604 20.206 17.6137 17.7739 18.6108 15.5799C19.6079 13.386 21.2078 11.5204 23.2242 10.2006C25.2405 8.88078 27.5904 8.16096 30 8.125C33.3402 8.15801 36.5312 9.51343 38.8741 11.8944C41.217 14.2754 42.5208 17.4878 42.5 20.8281C42.5013 23.7421 41.5092 26.5694 39.6875 28.8438L30 42.5ZM30 11.25C27.4873 11.2789 25.0887 12.3037 23.331 14.0995C21.5732 15.8954 20.6 18.3154 20.625 20.8281C20.6368 23.1213 21.4618 25.336 22.9531 27.0781L30 37.0625L37.2344 26.875C38.6095 25.1585 39.3639 23.0275 39.375 20.8281C39.4 18.3154 38.4268 15.8954 36.6691 14.0995C34.9113 12.3037 32.5127 11.2789 30 11.25Z" fill="#53C357"/>
<path d="M30 22.1875C31.7259 22.1875 33.125 20.7884 33.125 19.0625C33.125 17.3366 31.7259 15.9375 30 15.9375C28.2741 15.9375 26.875 17.3366 26.875 19.0625C26.875 20.7884 28.2741 22.1875 30 22.1875Z" fill="#53C357"/>
<path d="M48.75 23.75H45.625V26.875H48.75V48.75H11.25V26.875H14.375V23.75H11.25C10.4212 23.75 9.62634 24.0792 9.04029 24.6653C8.45424 25.2513 8.125 26.0462 8.125 26.875V48.75C8.125 49.5788 8.45424 50.3737 9.04029 50.9597C9.62634 51.5458 10.4212 51.875 11.25 51.875H48.75C49.5788 51.875 50.3737 51.5458 50.9597 50.9597C51.5458 50.3737 51.875 49.5788 51.875 48.75V26.875C51.875 26.0462 51.5458 25.2513 50.9597 24.6653C50.3737 24.0792 49.5788 23.75 48.75 23.75Z" fill="#53C357"/>
</svg>
