<svg width="24" height="24" viewBox="0 0 24 24" fill="none" xmlns="http://www.w3.org/2000/svg">
<path d="M12 17L8.19376 11.625C7.57075 10.8894 7.16954 9.99197 7.03686 9.03718C6.90418 8.08239 7.04549 7.10956 7.44433 6.23197C7.84317 5.35439 8.48313 4.60818 9.28968 4.08024C10.0962 3.55231 11.0362 3.26439 12 3.25C13.3361 3.2632 14.6125 3.80537 15.5497 4.75776C16.4868 5.71015 17.0083 6.99512 17 8.33125C17.0005 9.49683 16.6037 10.6278 15.875 11.5375L12 17ZM12 4.5C10.9949 4.51154 10.0355 4.92149 9.33239 5.63982C8.6293 6.35815 8.24001 7.32614 8.25001 8.33125C8.25474 9.24854 8.58473 10.1344 9.18126 10.8313L12 14.825L14.8938 10.75C15.4438 10.0634 15.7456 9.211 15.75 8.33125C15.76 7.32614 15.3707 6.35815 14.6676 5.63982C13.9645 4.92149 13.0051 4.51154 12 4.5Z" fill="#1A1A1A"/>
<path d="M12 8.875C12.6904 8.875 13.25 8.31536 13.25 7.625C13.25 6.93464 12.6904 6.375 12 6.375C11.3096 6.375 10.75 6.93464 10.75 7.625C10.75 8.31536 11.3096 8.875 12 8.875Z" fill="#1A1A1A"/>
<path d="M19.5 9.5H18.25V10.75H19.5V19.5H4.5V10.75H5.75V9.5H4.5C4.16848 9.5 3.85054 9.6317 3.61612 9.86612C3.3817 10.1005 3.25 10.4185 3.25 10.75V19.5C3.25 19.8315 3.3817 20.1495 3.61612 20.3839C3.85054 20.6183 4.16848 20.75 4.5 20.75H19.5C19.8315 20.75 20.1495 20.6183 20.3839 20.3839C20.6183 20.1495 20.75 19.8315 20.75 19.5V10.75C20.75 10.4185 20.6183 10.1005 20.3839 9.86612C20.1495 9.6317 19.8315 9.5 19.5 9.5Z" fill="#1A1A1A"/>
</svg>
