<svg width="16" height="18" viewBox="0 0 16 18" fill="none" xmlns="http://www.w3.org/2000/svg">
<path d="M13.3333 18C12.5926 18 11.963 17.7375 11.4444 17.2125C10.9259 16.6875 10.6667 16.05 10.6667 15.3C10.6667 15.21 10.6889 15 10.7333 14.67L4.48889 10.98C4.25185 11.205 3.97778 11.3814 3.66667 11.5092C3.35556 11.637 3.02222 11.7006 2.66667 11.7C1.92593 11.7 1.2963 11.4375 0.777778 10.9125C0.259259 10.3875 0 9.75 0 9C0 8.25 0.259259 7.6125 0.777778 7.0875C1.2963 6.5625 1.92593 6.3 2.66667 6.3C3.02222 6.3 3.35556 6.3639 3.66667 6.4917C3.97778 6.6195 4.25185 6.7956 4.48889 7.02L10.7333 3.33C10.7037 3.225 10.6853 3.1239 10.6782 3.0267C10.6711 2.9295 10.6673 2.8206 10.6667 2.7C10.6667 1.95 10.9259 1.3125 11.4444 0.7875C11.963 0.2625 12.5926 0 13.3333 0C14.0741 0 14.7037 0.2625 15.2222 0.7875C15.7407 1.3125 16 1.95 16 2.7C16 3.45 15.7407 4.0875 15.2222 4.6125C14.7037 5.1375 14.0741 5.4 13.3333 5.4C12.9778 5.4 12.6444 5.3361 12.3333 5.2083C12.0222 5.0805 11.7481 4.9044 11.5111 4.68L5.26667 8.37C5.2963 8.475 5.31496 8.5764 5.32267 8.6742C5.33037 8.772 5.33393 8.8806 5.33333 9C5.33274 9.1194 5.32919 9.2283 5.32267 9.3267C5.31615 9.4251 5.29748 9.5262 5.26667 9.63L11.5111 13.32C11.7481 13.095 12.0222 12.9189 12.3333 12.7917C12.6444 12.6645 12.9778 12.6006 13.3333 12.6C14.0741 12.6 14.7037 12.8625 15.2222 13.3875C15.7407 13.9125 16 14.55 16 15.3C16 16.05 15.7407 16.6875 15.2222 17.2125C14.7037 17.7375 14.0741 18 13.3333 18Z" fill="white"/>
</svg>
